<svg width="118" height="120" viewBox="0 0 118 120" fill="none" xmlns="http://www.w3.org/2000/svg">
<rect x="2.5" y="2.5" width="112.125" height="73.2109" rx="14.5" fill="#7200A8" stroke="black" stroke-width="5"/>
<rect x="46.875" y="80.625" width="23.5623" height="7.84345" rx="3.92173" fill="#7200A8" stroke="black" stroke-width="5"/>
<rect x="1" y="93.2045" width="91.738" height="25.7955" rx="12.8978" fill="#7200A8" stroke="black" stroke-width="2"/>
<rect x="11.4062" y="99.5312" width="2.8125" height="1.5625" rx="0.78125" fill="#7200A8" stroke="black" stroke-width="1.5625"/>
<rect x="12.0312" y="104.531" width="2.8125" height="1.5625" rx="0.78125" fill="#7200A8" stroke="black" stroke-width="1.5625"/>
<rect x="12.0312" y="109.531" width="2.8125" height="1.5625" rx="0.78125" fill="#7200A8" stroke="black" stroke-width="1.5625"/>
<rect x="17.6562" y="99.5312" width="2.8125" height="1.5625" rx="0.78125" fill="#7200A8" stroke="black" stroke-width="1.5625"/>
<rect x="18.2812" y="104.531" width="2.8125" height="1.5625" rx="0.78125" fill="#7200A8" stroke="black" stroke-width="1.5625"/>
<rect x="18.2812" y="109.531" width="2.8125" height="1.5625" rx="0.78125" fill="#7200A8" stroke="black" stroke-width="1.5625"/>
<rect x="23.9062" y="99.5312" width="2.8125" height="1.5625" rx="0.78125" fill="#7200A8" stroke="black" stroke-width="1.5625"/>
<rect x="24.5312" y="104.531" width="2.8125" height="1.5625" rx="0.78125" fill="#7200A8" stroke="black" stroke-width="1.5625"/>
<rect x="24.5312" y="109.531" width="2.8125" height="1.5625" rx="0.78125" fill="#7200A8" stroke="black" stroke-width="1.5625"/>
<rect x="30.1562" y="99.5312" width="2.8125" height="1.5625" rx="0.78125" fill="#7200A8" stroke="black" stroke-width="1.5625"/>
<rect x="30.7812" y="104.531" width="2.8125" height="1.5625" rx="0.78125" fill="#7200A8" stroke="black" stroke-width="1.5625"/>
<rect x="30.7812" y="109.531" width="2.8125" height="1.5625" rx="0.78125" fill="#7200A8" stroke="black" stroke-width="1.5625"/>
<rect x="37.0312" y="99.5312" width="2.8125" height="1.5625" rx="0.78125" fill="#7200A8" stroke="black" stroke-width="1.5625"/>
<rect x="37.6562" y="104.531" width="2.8125" height="1.5625" rx="0.78125" fill="#7200A8" stroke="black" stroke-width="1.5625"/>
<rect x="37.6562" y="109.531" width="2.8125" height="1.5625" rx="0.78125" fill="#7200A8" stroke="black" stroke-width="1.5625"/>
<rect x="43.9062" y="99.5312" width="2.8125" height="1.5625" rx="0.78125" fill="#7200A8" stroke="black" stroke-width="1.5625"/>
<rect x="44.5312" y="104.531" width="2.8125" height="1.5625" rx="0.78125" fill="#7200A8" stroke="black" stroke-width="1.5625"/>
<rect x="44.5312" y="109.531" width="2.8125" height="1.5625" rx="0.78125" fill="#7200A8" stroke="black" stroke-width="1.5625"/>
<rect x="50.7812" y="99.5312" width="2.8125" height="1.5625" rx="0.78125" fill="#7200A8" stroke="black" stroke-width="1.5625"/>
<rect x="51.4062" y="104.531" width="2.8125" height="1.5625" rx="0.78125" fill="#7200A8" stroke="black" stroke-width="1.5625"/>
<rect x="51.4062" y="109.531" width="2.8125" height="1.5625" rx="0.78125" fill="#7200A8" stroke="black" stroke-width="1.5625"/>
<rect x="71.4062" y="99.5312" width="2.8125" height="1.5625" rx="0.78125" fill="#7200A8" stroke="black" stroke-width="1.5625"/>
<rect x="72.0312" y="104.531" width="2.8125" height="1.5625" rx="0.78125" fill="#7200A8" stroke="black" stroke-width="1.5625"/>
<rect x="72.0312" y="109.531" width="2.8125" height="1.5625" rx="0.78125" fill="#7200A8" stroke="black" stroke-width="1.5625"/>
<rect x="57.6562" y="99.5312" width="2.8125" height="1.5625" rx="0.78125" fill="#7200A8" stroke="black" stroke-width="1.5625"/>
<rect x="58.2812" y="104.531" width="2.8125" height="1.5625" rx="0.78125" fill="#7200A8" stroke="black" stroke-width="1.5625"/>
<rect x="58.2812" y="109.531" width="2.8125" height="1.5625" rx="0.78125" fill="#7200A8" stroke="black" stroke-width="1.5625"/>
<rect x="78.2812" y="99.5312" width="2.8125" height="1.5625" rx="0.78125" fill="#7200A8" stroke="black" stroke-width="1.5625"/>
<rect x="78.9062" y="104.531" width="2.8125" height="1.5625" rx="0.78125" fill="#7200A8" stroke="black" stroke-width="1.5625"/>
<rect x="78.9062" y="109.531" width="2.8125" height="1.5625" rx="0.78125" fill="#7200A8" stroke="black" stroke-width="1.5625"/>
<rect x="64.5312" y="99.5312" width="2.8125" height="1.5625" rx="0.78125" fill="#7200A8" stroke="black" stroke-width="1.5625"/>
<rect x="65.1562" y="104.531" width="2.8125" height="1.5625" rx="0.78125" fill="#7200A8" stroke="black" stroke-width="1.5625"/>
<rect x="65.1562" y="109.531" width="2.8125" height="1.5625" rx="0.78125" fill="#7200A8" stroke="black" stroke-width="1.5625"/>
<rect x="102.673" y="96.9217" width="9.73482" height="16.4441" rx="4.86741" fill="#7200A8" stroke="black"/>
<rect x="107.013" y="98.9617" width="0.86262" height="4.3131" rx="0.43131" fill="#7200A8" stroke="black" stroke-width="0.86262"/>
</svg>
