<svg width="101" height="103" viewBox="0 0 101 103" fill="none" xmlns="http://www.w3.org/2000/svg">
<circle cx="50.5" cy="51.5" r="47.5" stroke="#D9D9D9" stroke-width="6"/>
<path d="M50.6507 100.794C64.9306 86.0733 72.5611 69.0003 72.6587 51.5523C72.7564 34.1043 65.3171 16.9951 51.2024 2.20596" stroke="#D9D9D9" stroke-width="4"/>
<path d="M50.6507 100.794C36.3709 86.0733 28.7404 69.0003 28.6427 51.5523C28.5451 34.1043 35.9844 16.9951 50.0991 2.20596" stroke="#D9D9D9" stroke-width="4"/>
<path d="M1.80877 47.7313C13.567 56.4746 24.1495 55.6223 50.7216 55.7199C77.2938 55.8176 89.2416 56.9268 99.6431 47.7313" stroke="#D9D9D9" stroke-width="4"/>
<path d="M8.59235 23.7627C14.9237 29.0388 24.5768 31.2905 51.149 31.3881C77.7211 31.4857 83.9655 31.1492 92.2565 24.5164" stroke="#D9D9D9" stroke-width="4"/>
<path d="M6.33116 72.1522C13.246 76.9632 19.3027 78.0652 49.7749 78.1626C80.247 78.26 87.5807 78.1626 94.6685 73.6555" stroke="#D9D9D9" stroke-width="4"/>
</svg>
