<svg width="104" height="107" viewBox="0 0 104 107" fill="none" xmlns="http://www.w3.org/2000/svg">
<rect x="2.5" y="2.5" width="99" height="64.4468" rx="14.5" fill="#7200A8" stroke="#D9D9D9" stroke-width="5"/>
<rect x="42.8085" y="68.5588" width="19.6596" height="5.70213" rx="2.85106" fill="#7200A8" stroke="#D9D9D9" stroke-width="5.70213"/>
<rect x="0.5" y="82.3723" width="82.234" height="23.6808" rx="5.5" fill="#7200A8" stroke="#D9D9D9"/>
<rect x="10.1281" y="88.3782" width="2.49734" height="1.38741" rx="0.693706" fill="#7200A8" stroke="#D9D9D9" stroke-width="1.38741"/>
<rect x="10.6831" y="92.8179" width="2.49734" height="1.38741" rx="0.693706" fill="#7200A8" stroke="#D9D9D9" stroke-width="1.38741"/>
<rect x="10.6831" y="97.2575" width="2.49734" height="1.38741" rx="0.693706" fill="#7200A8" stroke="#D9D9D9" stroke-width="1.38741"/>
<rect x="15.6777" y="88.3782" width="2.49734" height="1.38741" rx="0.693706" fill="#7200A8" stroke="#D9D9D9" stroke-width="1.38741"/>
<rect x="16.2327" y="92.8179" width="2.49734" height="1.38741" rx="0.693706" fill="#7200A8" stroke="#D9D9D9" stroke-width="1.38741"/>
<rect x="16.2327" y="97.2575" width="2.49734" height="1.38741" rx="0.693706" fill="#7200A8" stroke="#D9D9D9" stroke-width="1.38741"/>
<rect x="21.2274" y="88.3782" width="2.49734" height="1.38741" rx="0.693706" fill="#7200A8" stroke="#D9D9D9" stroke-width="1.38741"/>
<rect x="21.7824" y="92.8179" width="2.49734" height="1.38741" rx="0.693706" fill="#7200A8" stroke="#D9D9D9" stroke-width="1.38741"/>
<rect x="21.7824" y="97.2575" width="2.49734" height="1.38741" rx="0.693706" fill="#7200A8" stroke="#D9D9D9" stroke-width="1.38741"/>
<rect x="26.777" y="88.3782" width="2.49734" height="1.38741" rx="0.693706" fill="#7200A8" stroke="#D9D9D9" stroke-width="1.38741"/>
<rect x="27.332" y="92.8179" width="2.49734" height="1.38741" rx="0.693706" fill="#7200A8" stroke="#D9D9D9" stroke-width="1.38741"/>
<rect x="27.332" y="97.2575" width="2.49734" height="1.38741" rx="0.693706" fill="#7200A8" stroke="#D9D9D9" stroke-width="1.38741"/>
<rect x="32.8816" y="88.3782" width="2.49734" height="1.38741" rx="0.693706" fill="#7200A8" stroke="#D9D9D9" stroke-width="1.38741"/>
<rect x="33.4366" y="92.8179" width="2.49734" height="1.38741" rx="0.693706" fill="#7200A8" stroke="#D9D9D9" stroke-width="1.38741"/>
<rect x="33.4366" y="97.2575" width="2.49734" height="1.38741" rx="0.693706" fill="#7200A8" stroke="#D9D9D9" stroke-width="1.38741"/>
<rect x="38.9862" y="88.3782" width="2.49734" height="1.38741" rx="0.693706" fill="#7200A8" stroke="#D9D9D9" stroke-width="1.38741"/>
<rect x="39.5412" y="92.8179" width="2.49734" height="1.38741" rx="0.693706" fill="#7200A8" stroke="#D9D9D9" stroke-width="1.38741"/>
<rect x="39.5412" y="97.2575" width="2.49734" height="1.38741" rx="0.693706" fill="#7200A8" stroke="#D9D9D9" stroke-width="1.38741"/>
<rect x="45.0909" y="88.3782" width="2.49734" height="1.38741" rx="0.693706" fill="#7200A8" stroke="#D9D9D9" stroke-width="1.38741"/>
<rect x="45.6458" y="92.8179" width="2.49734" height="1.38741" rx="0.693706" fill="#7200A8" stroke="#D9D9D9" stroke-width="1.38741"/>
<rect x="45.6458" y="97.2575" width="2.49734" height="1.38741" rx="0.693706" fill="#7200A8" stroke="#D9D9D9" stroke-width="1.38741"/>
<rect x="63.4047" y="88.3782" width="2.49734" height="1.38741" rx="0.693706" fill="#7200A8" stroke="#D9D9D9" stroke-width="1.38741"/>
<rect x="63.9597" y="92.8179" width="2.49734" height="1.38741" rx="0.693706" fill="#7200A8" stroke="#D9D9D9" stroke-width="1.38741"/>
<rect x="63.9597" y="97.2575" width="2.49734" height="1.38741" rx="0.693706" fill="#7200A8" stroke="#D9D9D9" stroke-width="1.38741"/>
<rect x="51.1955" y="88.3782" width="2.49734" height="1.38741" rx="0.693706" fill="#7200A8" stroke="#D9D9D9" stroke-width="1.38741"/>
<rect x="51.7504" y="92.8179" width="2.49734" height="1.38741" rx="0.693706" fill="#7200A8" stroke="#D9D9D9" stroke-width="1.38741"/>
<rect x="51.7504" y="97.2575" width="2.49734" height="1.38741" rx="0.693706" fill="#7200A8" stroke="#D9D9D9" stroke-width="1.38741"/>
<rect x="69.5093" y="88.3782" width="2.49734" height="1.38741" rx="0.693706" fill="#7200A8" stroke="#D9D9D9" stroke-width="1.38741"/>
<rect x="70.0643" y="92.8179" width="2.49734" height="1.38741" rx="0.693706" fill="#7200A8" stroke="#D9D9D9" stroke-width="1.38741"/>
<rect x="70.0643" y="97.2575" width="2.49734" height="1.38741" rx="0.693706" fill="#7200A8" stroke="#D9D9D9" stroke-width="1.38741"/>
<rect x="57.3001" y="88.3782" width="2.49734" height="1.38741" rx="0.693706" fill="#7200A8" stroke="#D9D9D9" stroke-width="1.38741"/>
<rect x="57.8551" y="92.8179" width="2.49734" height="1.38741" rx="0.693706" fill="#7200A8" stroke="#D9D9D9" stroke-width="1.38741"/>
<rect x="57.8551" y="97.2575" width="2.49734" height="1.38741" rx="0.693706" fill="#7200A8" stroke="#D9D9D9" stroke-width="1.38741"/>
<rect x="91.2234" y="86.1171" width="8.53191" height="14.4894" rx="4.26596" fill="#7200A8" stroke="#D9D9D9"/>
<rect x="95.0213" y="87.8724" width="0.765957" height="3.82979" rx="0.382979" fill="#7200A8" stroke="#D9D9D9" stroke-width="0.765957"/>
</svg>
