<svg width="206" height="110" viewBox="0 0 206 110" fill="none" xmlns="http://www.w3.org/2000/svg">
<rect x="2.5" y="5.5" width="99" height="64.4468" rx="14.5" fill="#7200A8" stroke="#D9D9D9" stroke-width="5"/>
<rect x="42.8085" y="71.5588" width="19.6596" height="5.70213" rx="2.85106" fill="#7200A8" stroke="#D9D9D9" stroke-width="5.70213"/>
<rect x="0.5" y="85.3723" width="82.234" height="23.6808" rx="5.5" fill="#7200A8" stroke="#D9D9D9"/>
<rect x="10.1281" y="91.3782" width="2.49734" height="1.38741" rx="0.693706" fill="#7200A8" stroke="#D9D9D9" stroke-width="1.38741"/>
<rect x="10.6831" y="95.8179" width="2.49734" height="1.38741" rx="0.693706" fill="#7200A8" stroke="#D9D9D9" stroke-width="1.38741"/>
<rect x="10.6831" y="100.258" width="2.49734" height="1.38741" rx="0.693706" fill="#7200A8" stroke="#D9D9D9" stroke-width="1.38741"/>
<rect x="15.6778" y="91.3782" width="2.49734" height="1.38741" rx="0.693706" fill="#7200A8" stroke="#D9D9D9" stroke-width="1.38741"/>
<rect x="16.2327" y="95.8179" width="2.49734" height="1.38741" rx="0.693706" fill="#7200A8" stroke="#D9D9D9" stroke-width="1.38741"/>
<rect x="16.2327" y="100.258" width="2.49734" height="1.38741" rx="0.693706" fill="#7200A8" stroke="#D9D9D9" stroke-width="1.38741"/>
<rect x="21.2274" y="91.3782" width="2.49734" height="1.38741" rx="0.693706" fill="#7200A8" stroke="#D9D9D9" stroke-width="1.38741"/>
<rect x="21.7824" y="95.8179" width="2.49734" height="1.38741" rx="0.693706" fill="#7200A8" stroke="#D9D9D9" stroke-width="1.38741"/>
<rect x="21.7824" y="100.258" width="2.49734" height="1.38741" rx="0.693706" fill="#7200A8" stroke="#D9D9D9" stroke-width="1.38741"/>
<rect x="26.777" y="91.3782" width="2.49734" height="1.38741" rx="0.693706" fill="#7200A8" stroke="#D9D9D9" stroke-width="1.38741"/>
<rect x="27.332" y="95.8179" width="2.49734" height="1.38741" rx="0.693706" fill="#7200A8" stroke="#D9D9D9" stroke-width="1.38741"/>
<rect x="27.332" y="100.258" width="2.49734" height="1.38741" rx="0.693706" fill="#7200A8" stroke="#D9D9D9" stroke-width="1.38741"/>
<rect x="32.8817" y="91.3782" width="2.49734" height="1.38741" rx="0.693706" fill="#7200A8" stroke="#D9D9D9" stroke-width="1.38741"/>
<rect x="33.4366" y="95.8179" width="2.49734" height="1.38741" rx="0.693706" fill="#7200A8" stroke="#D9D9D9" stroke-width="1.38741"/>
<rect x="33.4366" y="100.258" width="2.49734" height="1.38741" rx="0.693706" fill="#7200A8" stroke="#D9D9D9" stroke-width="1.38741"/>
<rect x="38.9863" y="91.3782" width="2.49734" height="1.38741" rx="0.693706" fill="#7200A8" stroke="#D9D9D9" stroke-width="1.38741"/>
<rect x="39.5412" y="95.8179" width="2.49734" height="1.38741" rx="0.693706" fill="#7200A8" stroke="#D9D9D9" stroke-width="1.38741"/>
<rect x="39.5412" y="100.258" width="2.49734" height="1.38741" rx="0.693706" fill="#7200A8" stroke="#D9D9D9" stroke-width="1.38741"/>
<rect x="45.0909" y="91.3782" width="2.49734" height="1.38741" rx="0.693706" fill="#7200A8" stroke="#D9D9D9" stroke-width="1.38741"/>
<rect x="45.6459" y="95.8179" width="2.49734" height="1.38741" rx="0.693706" fill="#7200A8" stroke="#D9D9D9" stroke-width="1.38741"/>
<rect x="45.6459" y="100.258" width="2.49734" height="1.38741" rx="0.693706" fill="#7200A8" stroke="#D9D9D9" stroke-width="1.38741"/>
<rect x="63.4047" y="91.3782" width="2.49734" height="1.38741" rx="0.693706" fill="#7200A8" stroke="#D9D9D9" stroke-width="1.38741"/>
<rect x="63.9597" y="95.8179" width="2.49734" height="1.38741" rx="0.693706" fill="#7200A8" stroke="#D9D9D9" stroke-width="1.38741"/>
<rect x="63.9597" y="100.258" width="2.49734" height="1.38741" rx="0.693706" fill="#7200A8" stroke="#D9D9D9" stroke-width="1.38741"/>
<rect x="51.1955" y="91.3782" width="2.49734" height="1.38741" rx="0.693706" fill="#7200A8" stroke="#D9D9D9" stroke-width="1.38741"/>
<rect x="51.7505" y="95.8179" width="2.49734" height="1.38741" rx="0.693706" fill="#7200A8" stroke="#D9D9D9" stroke-width="1.38741"/>
<rect x="51.7505" y="100.258" width="2.49734" height="1.38741" rx="0.693706" fill="#7200A8" stroke="#D9D9D9" stroke-width="1.38741"/>
<rect x="69.5093" y="91.3782" width="2.49734" height="1.38741" rx="0.693706" fill="#7200A8" stroke="#D9D9D9" stroke-width="1.38741"/>
<rect x="70.0643" y="95.8179" width="2.49734" height="1.38741" rx="0.693706" fill="#7200A8" stroke="#D9D9D9" stroke-width="1.38741"/>
<rect x="70.0643" y="100.258" width="2.49734" height="1.38741" rx="0.693706" fill="#7200A8" stroke="#D9D9D9" stroke-width="1.38741"/>
<rect x="57.3001" y="91.3782" width="2.49734" height="1.38741" rx="0.693706" fill="#7200A8" stroke="#D9D9D9" stroke-width="1.38741"/>
<rect x="57.8551" y="95.8179" width="2.49734" height="1.38741" rx="0.693706" fill="#7200A8" stroke="#D9D9D9" stroke-width="1.38741"/>
<rect x="57.8551" y="100.258" width="2.49734" height="1.38741" rx="0.693706" fill="#7200A8" stroke="#D9D9D9" stroke-width="1.38741"/>
<rect x="91.2234" y="89.1171" width="8.53191" height="14.4894" rx="4.26596" fill="#7200A8" stroke="#D9D9D9"/>
<rect x="95.0213" y="90.8724" width="0.765957" height="3.82979" rx="0.382979" fill="#7200A8" stroke="#D9D9D9" stroke-width="0.765957"/>
<rect x="122" y="2" width="46" height="106" rx="6" stroke="#D9D9D9" stroke-width="4"/>
<path d="M166.821 90.4829L174.566 90.4829C178.719 90.4829 182.634 92.4189 185.155 95.7188V95.7188V95.7188C187.726 99.0844 191.474 101.354 195.648 102.074L203.821 103.483" stroke="#D9D9D9"/>
<rect x="127" y="7" width="6" height="4" rx="1" fill="#D9D9D9"/>
<rect x="128" y="19" width="34" height="4" rx="1" fill="#D9D9D9"/>
</svg>
