<svg width="145" height="107" viewBox="0 0 145 107" fill="none" xmlns="http://www.w3.org/2000/svg">
<mask id="path-1-inside-1_105_45" fill="white">
<path d="M38.8118 6.14887C37.9018 2.75295 34.4112 0.737649 31.0153 1.64759C27.6194 2.55752 25.6041 6.04812 26.514 9.44405L39.05 56.229C39.9599 59.6249 43.4505 61.6402 46.8464 60.7303C50.2424 59.8203 52.2577 56.3297 51.3477 52.9338L38.8118 6.14887Z"/>
</mask>
<path d="M38.8118 6.14887C37.9018 2.75295 34.4112 0.737649 31.0153 1.64759C27.6194 2.55752 25.6041 6.04812 26.514 9.44405L39.05 56.229C39.9599 59.6249 43.4505 61.6402 46.8464 60.7303C50.2424 59.8203 52.2577 56.3297 51.3477 52.9338L38.8118 6.14887Z" fill="#A100EE"/>
<path d="M42.4166 4.14767C40.9349 -1.38212 35.251 -4.66375 29.7212 -3.18204C24.1914 -1.70034 20.9098 3.9836 22.3915 9.5134L30.3777 8.40877C30.1825 7.68017 31.0473 6.81538 32.3094 6.47722C33.5715 6.13905 34.7528 6.45555 34.9481 7.18415L42.4166 4.14767ZM40.6976 62.3778L52.9953 59.0827L40.6976 62.3778ZM46.8464 60.7303C52.3762 59.2486 55.6579 53.5646 54.1762 48.0348L42.4166 4.14767C40.9349 -1.38212 35.251 -4.66375 29.7212 -3.18204L32.3094 6.47722C33.5715 6.13905 34.7528 6.45555 34.9481 7.18415L47.484 53.9691C48.394 57.365 48.1085 60.3921 46.8464 60.7303ZM29.7212 -3.18204C24.1914 -1.70034 20.9098 3.9836 22.3915 9.5134L34.151 53.4005C35.6327 58.9303 41.3167 62.212 46.8464 60.7303C45.5844 61.0684 43.8236 58.5896 42.9137 55.1937L30.3777 8.40877C30.1825 7.68017 31.0473 6.81538 32.3094 6.47722L29.7212 -3.18204Z" fill="#D9D9D9" mask="url(#path-1-inside-1_105_45)"/>
<mask id="path-3-inside-2_105_45" fill="white">
<path d="M104.092 6.14887C105.002 2.75295 108.492 0.737649 111.888 1.64759C115.284 2.55752 117.299 6.04812 116.389 9.44405L103.853 56.229C102.944 59.6249 99.4529 61.6402 96.057 60.7303C92.6611 59.8203 90.6458 56.3297 91.5557 52.9338L104.092 6.14887Z"/>
</mask>
<path d="M104.092 6.14887C105.002 2.75295 108.492 0.737649 111.888 1.64759C115.284 2.55752 117.299 6.04812 116.389 9.44405L103.853 56.229C102.944 59.6249 99.4529 61.6402 96.057 60.7303C92.6611 59.8203 90.6458 56.3297 91.5557 52.9338L104.092 6.14887Z" fill="#A100EE"/>
<path d="M100.487 4.14767C101.969 -1.38212 107.652 -4.66375 113.182 -3.18204C118.712 -1.70034 121.994 3.9836 120.512 9.5134L112.526 8.40877C112.721 7.68017 111.856 6.81538 110.594 6.47722C109.332 6.13905 108.151 6.45555 107.955 7.18415L100.487 4.14767ZM102.206 62.3778L89.9081 59.0827L102.206 62.3778ZM96.057 60.7303C90.5272 59.2486 87.2456 53.5646 88.7273 48.0348L100.487 4.14767C101.969 -1.38212 107.652 -4.66375 113.182 -3.18204L110.594 6.47722C109.332 6.13905 108.151 6.45555 107.955 7.18415L95.4194 53.9691C94.5095 57.365 94.7949 60.3921 96.057 60.7303ZM113.182 -3.18204C118.712 -1.70034 121.994 3.9836 120.512 9.5134L108.752 53.4005C107.271 58.9303 101.587 62.212 96.057 60.7303C97.3191 61.0684 99.0798 58.5896 99.9898 55.1937L112.526 8.40877C112.721 7.68017 111.856 6.81538 110.594 6.47722L113.182 -3.18204Z" fill="#D9D9D9" mask="url(#path-3-inside-2_105_45)"/>
<path d="M38.6939 59.0424C42.3783 56.6417 46.6811 55.3636 51.0786 55.3636H89.9362C93.9732 55.3636 97.9369 56.4408 101.419 58.4841L135.121 78.2625C147.036 85.2548 142.077 103.504 128.262 103.504H16.0821C2.59887 103.504 -2.61338 85.9567 8.68345 78.5961L38.6939 59.0424Z" fill="url(#paint0_linear_105_45)" stroke="#D9D9D9" stroke-width="5"/>
<path d="M8.54634 79.3848L135 79" stroke="#D9D9D9" stroke-width="4" stroke-linecap="round"/>
<circle cx="13.7677" cy="90.4492" r="2.49096" fill="#D9D9D9"/>
<circle cx="20.1334" cy="90.4492" r="2.49096" fill="#D9D9D9"/>
<circle cx="26.4992" cy="90.4492" r="2.49096" fill="#D9D9D9"/>
<defs>
<linearGradient id="paint0_linear_105_45" x1="74.6856" y1="52.8636" x2="74.6856" y2="106.004" gradientUnits="userSpaceOnUse">
<stop stop-color="#AD00FF"/>
<stop offset="1" stop-color="#5C0088"/>
</linearGradient>
</defs>
</svg>
