<svg width="100" height="88" viewBox="0 0 100 88" fill="none" xmlns="http://www.w3.org/2000/svg">
<mask id="path-1-inside-1_301_120" fill="white">
<path d="M34 81H38V83C38 83.5523 38.4477 84 39 84H60C60.5523 84 61 83.5523 61 83V81H66V87C66 87.5523 65.5523 88 65 88H35C34.4477 88 34 87.5523 34 87V81Z"/>
</mask>
<path d="M34 81V74H27V81H34ZM66 81H73V74H66V81ZM38 81H45V74H38V81ZM61 81V74H54V81H61ZM59 81V87H73V81H59ZM65 81H35V95H65V81ZM41 87V81H27V87H41ZM34 88H38V74H34V88ZM31 81V83H45V81H31ZM39 91H60V77H39V91ZM68 83V81H54V83H68ZM61 88H66V74H61V88ZM60 91C64.4183 91 68 87.4183 68 83H54C54 79.6863 56.6863 77 60 77V91ZM31 83C31 87.4183 34.5817 91 39 91V77C42.3137 77 45 79.6863 45 83H31ZM35 81C38.3137 81 41 83.6863 41 87H27C27 91.4183 30.5817 95 35 95V81ZM59 87C59 83.6863 61.6863 81 65 81V95C69.4183 95 73 91.4183 73 87H59Z" fill="#D9D9D9" mask="url(#path-1-inside-1_301_120)"/>
<rect x="17" y="6" width="6" height="14" fill="#D9D9D9"/>
<rect x="65" y="6" width="6" height="14" fill="#D9D9D9"/>
<rect x="41" y="6" width="6" height="14" fill="#D9D9D9"/>
<rect x="29" y="6" width="6" height="14" fill="#D9D9D9"/>
<rect x="53" y="6" width="6" height="14" fill="#D9D9D9"/>
<rect x="77" y="6" width="6" height="14" fill="#D9D9D9"/>
<path fill-rule="evenodd" clip-rule="evenodd" d="M7 7H93V59H73V66H93C96.866 66 100 62.866 100 59V7C100 3.13401 96.866 0 93 0H7C3.13401 0 0 3.13401 0 7V59C0 62.866 3.13401 66 7 66H27V59H7L7 7Z" fill="#D9D9D9"/>
<path fill-rule="evenodd" clip-rule="evenodd" d="M73 66H80V74C80 77.866 76.866 81 73 81H61V74H73V66ZM38 74L27 74V66H20V74C20 77.866 23.134 81 27 81H38V74Z" fill="#D9D9D9"/>
</svg>
