<svg width="99" height="149" viewBox="0 0 99 149" fill="none" xmlns="http://www.w3.org/2000/svg">
<mask id="path-1-inside-1_301_154" fill="white">
<path d="M43.6078 17.2196C43.6078 15.3331 42.0739 13.7843 40.199 13.9924C37.3111 14.313 34.4771 15.0398 31.7821 16.1561C28.0329 17.7091 24.6263 19.9853 21.7568 22.8548C18.8873 25.7243 16.611 29.131 15.0581 32.8802C13.9418 35.5751 13.2149 38.4091 12.8944 41.297C12.6863 43.172 14.2351 44.7058 16.1216 44.7058V44.7058C18.008 44.7058 19.5124 43.169 19.7792 41.3015C20.0636 39.3113 20.5968 37.3601 21.3695 35.4944C22.5792 32.5741 24.3522 29.9206 26.5874 27.6854C28.8225 25.4503 31.476 23.6772 34.3964 22.4676C36.262 21.6948 38.2133 21.1616 40.2035 20.8773C42.071 20.6105 43.6078 19.1061 43.6078 17.2196V17.2196Z"/>
</mask>
<path d="M43.6078 17.2196C43.6078 15.3331 42.0739 13.7843 40.199 13.9924C37.3111 14.313 34.4771 15.0398 31.7821 16.1561C28.0329 17.7091 24.6263 19.9853 21.7568 22.8548C18.8873 25.7243 16.611 29.131 15.0581 32.8802C13.9418 35.5751 13.2149 38.4091 12.8944 41.297C12.6863 43.172 14.2351 44.7058 16.1216 44.7058V44.7058C18.008 44.7058 19.5124 43.169 19.7792 41.3015C20.0636 39.3113 20.5968 37.3601 21.3695 35.4944C22.5792 32.5741 24.3522 29.9206 26.5874 27.6854C28.8225 25.4503 31.476 23.6772 34.3964 22.4676C36.262 21.6948 38.2133 21.1616 40.2035 20.8773C42.071 20.6105 43.6078 19.1061 43.6078 17.2196V17.2196Z" fill="#D9D9D9" stroke="#D9D9D9" stroke-width="52" mask="url(#path-1-inside-1_301_154)"/>
<mask id="path-2-inside-2_301_154" fill="white">
<path d="M40 3.95081C40 1.76883 38.2269 -0.0202226 36.0556 0.194945C32.1557 0.581398 28.3265 1.53962 24.6927 3.04481C19.8396 5.055 15.4301 8.00138 11.7157 11.7157C8.00138 15.4301 5.055 19.8396 3.04482 24.6927C1.53963 28.3265 0.581405 32.1557 0.194952 36.0556C-0.0202152 38.2269 1.76884 40 3.95082 40V40C6.13279 40 7.87658 38.2246 8.14447 36.0591C8.49844 33.1978 9.23707 30.3912 10.345 27.7165C11.9581 23.8221 14.3224 20.2836 17.303 17.303C20.2836 14.3224 23.8221 11.9581 27.7165 10.345C30.3912 9.23706 33.1978 8.49844 36.0591 8.14446C38.2246 7.87657 40 6.13278 40 3.95081V3.95081Z"/>
</mask>
<path d="M40 3.95081C40 1.76883 38.2269 -0.0202226 36.0556 0.194945C32.1557 0.581398 28.3265 1.53962 24.6927 3.04481C19.8396 5.055 15.4301 8.00138 11.7157 11.7157C8.00138 15.4301 5.055 19.8396 3.04482 24.6927C1.53963 28.3265 0.581405 32.1557 0.194952 36.0556C-0.0202152 38.2269 1.76884 40 3.95082 40V40C6.13279 40 7.87658 38.2246 8.14447 36.0591C8.49844 33.1978 9.23707 30.3912 10.345 27.7165C11.9581 23.8221 14.3224 20.2836 17.303 17.303C20.2836 14.3224 23.8221 11.9581 27.7165 10.345C30.3912 9.23706 33.1978 8.49844 36.0591 8.14446C38.2246 7.87657 40 6.13278 40 3.95081V3.95081Z" stroke="#D9D9D9" stroke-width="52" mask="url(#path-2-inside-2_301_154)"/>
<rect x="29.5" y="28.5" width="65.2857" height="118" rx="14.5" stroke="#D9D9D9" stroke-width="5"/>
<rect x="51.1606" y="34.0536" width="21.9643" height="2.92857" rx="1.46429" fill="#D9D9D9"/>
<rect x="95.8213" y="45.7678" width="2.19643" height="29.2857" rx="1.09821" fill="#D9D9D9"/>
<rect x="95.8213" y="80.1786" width="2.19643" height="9.51786" rx="1.09821" fill="#D9D9D9"/>
</svg>
