<svg width="99" height="149" viewBox="0 0 99 149" fill="none" xmlns="http://www.w3.org/2000/svg">
<circle cx="37.2549" cy="39.294" r="6.35294" fill="#D9D9D9"/>
<mask id="path-2-inside-1_115_59" fill="white">
<path d="M43.6079 17.2196C43.6079 15.3331 42.074 13.7843 40.1991 13.9924C37.3112 14.313 34.4771 15.0398 31.7822 16.1561C28.033 17.7091 24.6264 19.9853 21.7569 22.8548C18.8874 25.7243 16.6111 29.131 15.0582 32.8802C13.9419 35.5751 13.215 38.4091 12.8945 41.297C12.6864 43.172 14.2352 44.7058 16.1216 44.7058V44.7058C18.0081 44.7058 19.5125 43.169 19.7793 41.3015C20.0637 39.3113 20.5969 37.3601 21.3696 35.4944C22.5793 32.5741 24.3523 29.9206 26.5875 27.6854C28.8226 25.4503 31.4761 23.6772 34.3965 22.4676C36.2621 21.6948 38.2134 21.1616 40.2036 20.8773C42.071 20.6105 43.6079 19.1061 43.6079 17.2196V17.2196Z"/>
</mask>
<path d="M43.6079 17.2196C43.6079 15.3331 42.074 13.7843 40.1991 13.9924C37.3112 14.313 34.4771 15.0398 31.7822 16.1561C28.033 17.7091 24.6264 19.9853 21.7569 22.8548C18.8874 25.7243 16.6111 29.131 15.0582 32.8802C13.9419 35.5751 13.215 38.4091 12.8945 41.297C12.6864 43.172 14.2352 44.7058 16.1216 44.7058V44.7058C18.0081 44.7058 19.5125 43.169 19.7793 41.3015C20.0637 39.3113 20.5969 37.3601 21.3696 35.4944C22.5793 32.5741 24.3523 29.9206 26.5875 27.6854C28.8226 25.4503 31.4761 23.6772 34.3965 22.4676C36.2621 21.6948 38.2134 21.1616 40.2036 20.8773C42.071 20.6105 43.6079 19.1061 43.6079 17.2196V17.2196Z" fill="#D9D9D9" stroke="#D9D9D9" stroke-width="52" mask="url(#path-2-inside-1_115_59)"/>
<mask id="path-3-inside-2_115_59" fill="white">
<path d="M40 3.95081C40 1.76883 38.2269 -0.0202226 36.0556 0.194945C32.1557 0.581398 28.3265 1.53962 24.6927 3.04481C19.8396 5.055 15.4301 8.00138 11.7157 11.7157C8.00138 15.4301 5.055 19.8396 3.04482 24.6927C1.53963 28.3265 0.581405 32.1557 0.194952 36.0556C-0.0202152 38.2269 1.76884 40 3.95082 40V40C6.13279 40 7.87658 38.2246 8.14447 36.0591C8.49844 33.1978 9.23707 30.3912 10.345 27.7165C11.9581 23.8221 14.3224 20.2836 17.303 17.303C20.2836 14.3224 23.8221 11.9581 27.7165 10.345C30.3912 9.23706 33.1978 8.49844 36.0591 8.14446C38.2246 7.87657 40 6.13278 40 3.95081V3.95081Z"/>
</mask>
<path d="M40 3.95081C40 1.76883 38.2269 -0.0202226 36.0556 0.194945C32.1557 0.581398 28.3265 1.53962 24.6927 3.04481C19.8396 5.055 15.4301 8.00138 11.7157 11.7157C8.00138 15.4301 5.055 19.8396 3.04482 24.6927C1.53963 28.3265 0.581405 32.1557 0.194952 36.0556C-0.0202152 38.2269 1.76884 40 3.95082 40V40C6.13279 40 7.87658 38.2246 8.14447 36.0591C8.49844 33.1978 9.23707 30.3912 10.345 27.7165C11.9581 23.8221 14.3224 20.2836 17.303 17.303C20.2836 14.3224 23.8221 11.9581 27.7165 10.345C30.3912 9.23706 33.1978 8.49844 36.0591 8.14446C38.2246 7.87657 40 6.13278 40 3.95081V3.95081Z" stroke="#D9D9D9" stroke-width="52" mask="url(#path-3-inside-2_115_59)"/>
<rect x="29.5" y="28.5" width="65.2857" height="118" rx="14.5" fill="#5C0088" stroke="#D9D9D9" stroke-width="5"/>
<rect x="51.1607" y="34.0536" width="21.9643" height="2.92857" rx="1.46429" fill="#D9D9D9"/>
<rect x="95.8214" y="45.7678" width="2.19643" height="29.2857" rx="1.09821" fill="#D9D9D9"/>
<rect x="95.8214" y="80.1786" width="2.19643" height="9.51786" rx="1.09821" fill="#D9D9D9"/>
</svg>
