<?xml version="1.0" encoding="utf-8"?>
<!-- Generator: Adobe Illustrator 27.3.1, SVG Export Plug-In . SVG Version: 6.00 Build 0)  -->
<svg version="1.1" id="Layer_1" xmlns="http://www.w3.org/2000/svg" xmlns:xlink="http://www.w3.org/1999/xlink" x="0px" y="0px"
	 viewBox="0 0 100 100" style="enable-background:new 0 0 100 100;" xml:space="preserve">
<style type="text/css">
	.st0{fill:#D9D9D9;}
	.st1{fill:#FFFFFF;filter:url(#Adobe_OpacityMaskFilter);}
	
		.st2{mask:url(#path-2-inside-1_116_62_00000127039004274343380920000005593053983308787644_);fill:#D9D9D9;stroke:#D9D9D9;stroke-width:52;}
	.st3{fill:#FFFFFF;filter:url(#Adobe_OpacityMaskFilter_00000115512463049346401620000016351111276931541681_);}
	
		.st4{mask:url(#path-3-inside-2_116_62_00000111896369963007883390000003512753505307882381_);fill:none;stroke:#D9D9D9;stroke-width:52;}
</style>
<circle class="st0" cx="81.6" cy="86.1" r="13.9"/>
<defs>
	<filter id="Adobe_OpacityMaskFilter" filterUnits="userSpaceOnUse" x="2.2" y="4.6" width="119.3" height="119.3">
		<feColorMatrix  type="matrix" values="1 0 0 0 0  0 1 0 0 0  0 0 1 0 0  0 0 0 1 0"/>
	</filter>
</defs>
<mask maskUnits="userSpaceOnUse" x="2.2" y="4.6" width="119.3" height="119.3" id="path-2-inside-1_116_62_00000127039004274343380920000005593053983308787644_">
	<path class="st1" d="M95.5,37.7c0-4.1-3.4-7.5-7.5-7.1c-6.3,0.7-12.5,2.3-18.4,4.7c-8.2,3.4-15.7,8.4-22,14.7S36.4,63.8,33,72
		c-2.4,5.9-4,12.1-4.7,18.4c-0.5,4.1,2.9,7.5,7.1,7.5l0,0c4.1,0,7.4-3.4,8-7.5c0.6-4.4,1.8-8.6,3.5-12.7c2.7-6.4,6.5-12.2,11.4-17.1
		s10.7-8.8,17.1-11.4c4.1-1.7,8.4-2.9,12.7-3.5C92.2,45.1,95.5,41.8,95.5,37.7L95.5,37.7z"/>
</mask>
<path class="st2" d="M95.5,37.7c0-4.1-3.4-7.5-7.5-7.1c-6.3,0.7-12.5,2.3-18.4,4.7c-8.2,3.4-15.7,8.4-22,14.7S36.4,63.8,33,72
	c-2.4,5.9-4,12.1-4.7,18.4c-0.5,4.1,2.9,7.5,7.1,7.5l0,0c4.1,0,7.4-3.4,8-7.5c0.6-4.4,1.8-8.6,3.5-12.7c2.7-6.4,6.5-12.2,11.4-17.1
	s10.7-8.8,17.1-11.4c4.1-1.7,8.4-2.9,12.7-3.5C92.2,45.1,95.5,41.8,95.5,37.7L95.5,37.7z"/>
<defs>
	
		<filter id="Adobe_OpacityMaskFilter_00000102509080703869456360000011195854416137665683_" filterUnits="userSpaceOnUse" x="-25.6" y="-25.6" width="139.3" height="139.3">
		<feColorMatrix  type="matrix" values="1 0 0 0 0  0 1 0 0 0  0 0 1 0 0  0 0 0 1 0"/>
	</filter>
</defs>
<mask maskUnits="userSpaceOnUse" x="-25.6" y="-25.6" width="139.3" height="139.3" id="path-3-inside-2_116_62_00000111896369963007883390000003512753505307882381_">
	<path style="fill:#FFFFFF;filter:url(#Adobe_OpacityMaskFilter_00000102509080703869456360000011195854416137665683_);" d="
		M87.6,8.6c0-4.8-3.9-8.7-8.6-8.2C70.4,1.2,62,3.3,54.1,6.6c-10.6,4.4-20.3,10.9-28.4,19s-14.6,17.8-19,28.4C3.3,62,1.2,70.4,0.4,79
		c-0.5,4.8,3.4,8.6,8.2,8.6l0,0c4.8,0,8.6-3.9,9.2-8.6c0.8-6.3,2.4-12.4,4.8-18.3c3.5-8.5,8.7-16.3,15.2-22.8
		c6.5-6.5,14.3-11.7,22.8-15.2c5.9-2.4,12-4,18.3-4.8C83.7,17.2,87.6,13.4,87.6,8.6L87.6,8.6z"/>
</mask>
<path class="st4" d="M87.6,8.6c0-4.8-3.9-8.7-8.6-8.2C70.4,1.2,62,3.3,54.1,6.6c-10.6,4.4-20.3,10.9-28.4,19s-14.6,17.8-19,28.4
	C3.3,62,1.2,70.4,0.4,79c-0.5,4.8,3.4,8.6,8.2,8.6l0,0c4.8,0,8.6-3.9,9.2-8.6c0.8-6.3,2.4-12.4,4.8-18.3c3.5-8.5,8.7-16.3,15.2-22.8
	c6.5-6.5,14.3-11.7,22.8-15.2c5.9-2.4,12-4,18.3-4.8C83.7,17.2,87.6,13.4,87.6,8.6L87.6,8.6z"/>
</svg>
