<svg width="145" height="106" viewBox="0 0 145 106" fill="none" xmlns="http://www.w3.org/2000/svg">
<mask id="path-1-inside-1_105_45" fill="white">
<path d="M37.8931 6.10311C36.9382 2.73246 33.4112 0.697705 30.0153 1.55837V1.55837C26.6194 2.41903 24.6405 5.84919 25.5954 9.21984L37.9686 52.8969C38.9235 56.2676 42.4505 58.3023 45.8464 57.4417V57.4417C49.2424 56.581 51.2212 53.1508 50.2664 49.7802L37.8931 6.10311Z"/>
</mask>
<path d="M41.498 4.15828C39.941 -1.33787 34.1898 -4.65571 28.6525 -3.25232C23.1151 -1.84893 19.8884 3.74425 21.4454 9.24039L29.4728 8.23715C29.2706 7.52337 30.1236 6.687 31.3781 6.36906C32.6326 6.05112 33.8135 6.37201 34.0157 7.0858L41.498 4.15828ZM39.6976 59L51.9953 55.8833L39.6976 59ZM45.8464 57.4417C51.3838 56.0383 54.6105 50.4451 53.0535 44.9489L41.498 4.15828C39.941 -1.33787 34.1898 -4.65571 28.6525 -3.25232L31.3781 6.36906C32.6326 6.05112 33.8135 6.37201 34.0157 7.0858L46.389 50.7629C47.3438 54.1335 47.1009 57.1237 45.8464 57.4417ZM28.6525 -3.25232C23.1151 -1.84893 19.8884 3.74425 21.4454 9.24039L33.001 50.0311C34.558 55.5272 40.3091 58.8451 45.8464 57.4417C44.592 57.7596 42.8009 55.2849 41.846 51.9142L29.4728 8.23715C29.2706 7.52337 30.1236 6.687 31.3781 6.36906L28.6525 -3.25232Z" fill="#D9D9D9" mask="url(#path-1-inside-1_105_45)"/>
<mask id="path-3-inside-2_105_45" fill="white">
<path d="M104.01 6.10311C104.965 2.73246 108.492 0.697705 111.888 1.55837V1.55837C115.284 2.41903 117.263 5.84919 116.308 9.21984L103.935 52.8969C102.98 56.2676 99.4529 58.3023 96.057 57.4417V57.4417C92.6611 56.581 90.6822 53.1508 91.6371 49.7802L104.01 6.10311Z"/>
</mask>
<path d="M100.405 4.15828C101.962 -1.33787 107.714 -4.65571 113.251 -3.25232C118.788 -1.84893 122.015 3.74425 120.458 9.24039L112.431 8.23715C112.633 7.52337 111.78 6.687 110.525 6.36906C109.271 6.05112 108.09 6.37201 107.888 7.0858L100.405 4.15828ZM102.206 59L89.9081 55.8833L102.206 59ZM96.057 57.4417C90.5196 56.0383 87.2929 50.4451 88.8499 44.9489L100.405 4.15828C101.962 -1.33787 107.714 -4.65571 113.251 -3.25232L110.525 6.36906C109.271 6.05112 108.09 6.37201 107.888 7.0858L95.5145 50.7629C94.5596 54.1335 94.8025 57.1237 96.057 57.4417ZM113.251 -3.25232C118.788 -1.84893 122.015 3.74425 120.458 9.24039L108.902 50.0311C107.345 55.5272 101.594 58.8451 96.057 57.4417C97.3115 57.7596 99.1025 55.2849 100.057 51.9142L112.431 8.23715C112.633 7.52337 111.78 6.687 110.525 6.36906L113.251 -3.25232Z" fill="#D9D9D9" mask="url(#path-3-inside-2_105_45)"/>
<path d="M51.0786 54.3636H89.9362C93.9732 54.3636 97.9369 55.4408 101.419 57.4841L135.121 77.2625C147.036 84.2548 142.077 102.504 128.262 102.504H16.0821C2.59887 102.504 -2.61338 84.9567 8.68345 77.5961L38.6939 58.0424C42.3783 55.6417 46.6811 54.3636 51.0786 54.3636Z" stroke="#D9D9D9" stroke-width="5"/>
<path d="M8.54634 78.3848L135 78" stroke="#D9D9D9" stroke-width="4" stroke-linecap="round"/>
<circle cx="13.7677" cy="89.4492" r="2.49096" fill="#D9D9D9"/>
<circle cx="20.1334" cy="89.4492" r="2.49096" fill="#D9D9D9"/>
<circle cx="26.4992" cy="89.4492" r="2.49096" fill="#D9D9D9"/>
</svg>
